<svg xmlns="http://www.w3.org/2000/svg" width="64" height="75" viewBox="0 0 64 75">
    <g fill="#FFFFFF" fill-rule="nonzero">
        <path d="M9.219 70.338a7.374 7.374 0 0 1-2.572.488 5.702 5.702 0 0 1-5.019-2.95 6.34 6.34 0 0 1-.767-3.114 6.954 6.954 0 0 1 .747-3.313 5.189 5.189 0 0 1 2.073-2.16 6.546 6.546 0 0 1 3.184-.747h5.402v16.354H9.22v-4.558zm-1.587-9.346c-2.44 0-3.66 1.302-3.66 3.905a3.7 3.7 0 0 0 .902 2.606 3.109 3.109 0 0 0 2.416.986 4.04 4.04 0 0 0 1.939-.509v-6.988H7.632zM20.956 58.334a6.743 6.743 0 0 1 3.256.79 5.561 5.561 0 0 1 2.26 2.211c.543.985.818 2.095.8 3.219a6.746 6.746 0 0 1-.768 3.281 5.5 5.5 0 0 1-2.26 2.222 6.743 6.743 0 0 1-3.288.81 6.67 6.67 0 0 1-3.276-.81 5.53 5.53 0 0 1-2.24-2.222 6.746 6.746 0 0 1-.767-3.281 6.393 6.393 0 0 1 .808-3.24 5.644 5.644 0 0 1 2.261-2.19 6.68 6.68 0 0 1 3.214-.79zm-3.11 6.23a4.573 4.573 0 0 0 .84 2.887 2.715 2.715 0 0 0 2.25 1.038 2.84 2.84 0 0 0 2.322-1.038c.619-.857.92-1.904.85-2.96a4.24 4.24 0 0 0-.85-2.834 2.88 2.88 0 0 0-2.312-1.038 2.746 2.746 0 0 0-2.24 1.038 4.313 4.313 0 0 0-.87 2.897l.01.01zM31.47 58.573l2.748 6.988 2.686-6.988h3.215l-5.185 12.294h-1.452l-5.257-12.294zM46.827 58.334a5.015 5.015 0 0 1 4.003 1.703 6.974 6.974 0 0 1 1.472 4.714v.478h-8.119a3.465 3.465 0 0 0 3.557 3.364h.238c.71 0 1.414-.134 2.074-.394a8.987 8.987 0 0 0 2.074-1.195v2.368a7.966 7.966 0 0 1-4.884 1.495 6 6 0 0 1-4.438-1.713 6.173 6.173 0 0 1-1.721-4.569 6.412 6.412 0 0 1 1.586-4.496 5.347 5.347 0 0 1 4.158-1.755zm2.644 4.974a3.596 3.596 0 0 0-.756-2.077 2.197 2.197 0 0 0-1.753-.747 2.445 2.445 0 0 0-1.835.706 3.595 3.595 0 0 0-.882 2.076l5.226.042zM61.23 58.334c.41.002.815.098 1.182.28.492.26.948.581 1.358.956l-1.036 2.772a3.886 3.886 0 0 0-2.074-1.038c-.51.018-.997.212-1.38.55a3.904 3.904 0 0 0-1.036 1.454 4.324 4.324 0 0 0-.415 1.807v5.503h-3.11V58.573h3.017v3.115a8.39 8.39 0 0 1 1.659-2.523 2.632 2.632 0 0 1 1.835-.83zM43.986 33.196a15.255 15.255 0 0 1-11.66 5.421c-4.494 0-8.76-1.983-11.66-5.421l-6.325 3.613a22.364 22.364 0 0 0 31.335 4.538l.654-.509.186.114 5.009 2.877a28.272 28.272 0 0 0 3.66-4.154l-11.199-6.48zM17.026 23.28A15.316 15.316 0 0 1 26.234 9.18a15.278 15.278 0 0 1 16.572 2.9 15.33 15.33 0 0 1 3.887 16.39l6.325 3.655c4.005-9.433 1.147-20.384-6.954-26.649a22.476 22.476 0 0 0-27.506 0c-8.102 6.265-10.96 17.216-6.955 26.65l6.326-3.656a15.262 15.262 0 0 1-.903-5.191z"/>
    </g>
</svg>